<svg xmlns="http://www.w3.org/2000/svg" xmlns:xlink="http://www.w3.org/1999/xlink" version="1.1" data-diagram-type="CLASS" style="width:859px;height:886px;background:#FFFFFF;" width="859px" height="886px" viewBox="0 0 859 886" zoomAndPan="magnify" preserveAspectRatio="none" contentStyleType="text/css"><?plantuml 1.2026.8?><defs/><g font-family="sans-serif" lengthAdjust="spacing"><!--cluster Domain--><g class="cluster" data-qualified-name="Domain" id="ent0001" data-source-line="2"><path d="M8.5,23.5 L60.838,23.5 A3.75,3.75 0 0 1 63.338,26 L70.338,47.109 L225.5,47.109 A2.5,2.5 0 0 1 228,49.609 L228,868.5 A2.5,2.5 0 0 1 225.5,871 L8.5,871 A2.5,2.5 0 0 1 6,868.5 L6,26 A2.5,2.5 0 0 1 8.5,23.5" style="stroke:#000;stroke-width:1.5;" fill="none"/><line x1="6" y1="47.109" x2="70.338" y2="47.109" style="stroke:#000;stroke-width:1.5;"/><text x="10" y="40.033" fill="#000" font-size="14" textLength="51.338" font-weight="700">Domain</text></g><!--cluster Services--><g class="cluster" data-qualified-name="Services" id="ent0006" data-source-line="36"><path d="M254.5,6 L313.106,6 A3.75,3.75 0 0 1 315.606,8.5 L322.606,29.609 L841.5,29.609 A2.5,2.5 0 0 1 844,32.109 L844,423 A2.5,2.5 0 0 1 841.5,425.5 L254.5,425.5 A2.5,2.5 0 0 1 252,423 L252,8.5 A2.5,2.5 0 0 1 254.5,6" style="stroke:#000;stroke-width:1.5;" fill="none"/><line x1="252" y1="29.609" x2="322.606" y2="29.609" style="stroke:#000;stroke-width:1.5;"/><text x="256" y="22.533" fill="#000" font-size="14" textLength="57.606" font-weight="700">Services</text></g><!--class Product--><g class="entity" data-qualified-name="Domain.Product" id="ent0002" data-source-line="3"><rect x="22" y="256" width="190.179" height="171.266" fill="#F1F1F1" style="stroke:#181818;stroke-width:0.5;" rx="2.5" ry="2.5"/><ellipse cx="88.715" cy="272" rx="11" ry="11" fill="#ADD1B2" style="stroke:#181818;stroke-width:1;"/><path d="M91.481,267.875 Q91.637,267.656 91.825,267.547 Q92.012,267.438 92.231,267.438 Q92.606,267.438 92.84,267.703 Q93.075,267.953 93.075,268.563 L93.075,270.016 Q93.075,270.625 92.84,270.891 Q92.606,271.156 92.231,271.156 Q91.887,271.156 91.684,270.953 Q91.481,270.766 91.372,270.25 Q91.325,269.891 91.137,269.703 Q90.809,269.328 90.2,269.109 Q89.59,268.891 88.965,268.891 Q88.2,268.891 87.559,269.219 Q86.934,269.547 86.434,270.297 Q85.95,271.047 85.95,272.078 L85.95,273.172 Q85.95,274.406 86.84,275.234 Q87.731,276.047 89.325,276.047 Q90.262,276.047 90.918,275.797 Q91.309,275.641 91.731,275.203 Q91.997,274.938 92.137,274.859 Q92.293,274.781 92.497,274.781 Q92.825,274.781 93.075,275.047 Q93.34,275.297 93.34,275.641 Q93.34,275.984 92.997,276.391 Q92.497,276.969 91.7,277.297 Q90.622,277.75 89.325,277.75 Q87.809,277.75 86.606,277.125 Q85.622,276.625 84.934,275.563 Q84.247,274.484 84.247,273.203 L84.247,272.047 Q84.247,270.719 84.856,269.578 Q85.481,268.422 86.575,267.813 Q87.668,267.188 88.903,267.188 Q89.637,267.188 90.278,267.359 Q90.934,267.516 91.481,267.875 Z " fill="#000"/><text x="109.215" y="277.729" fill="#000" font-size="14" textLength="48.248">Product</text><line x1="23" y1="288" x2="211.179" y2="288" style="stroke:#181818;stroke-width:0.5;"/><g data-visibility-modifier="PUBLIC_FIELD"><ellipse cx="33" cy="302.305" rx="3" ry="3" fill="none" style="stroke:#038048;stroke-width:1;"/></g><text x="42" y="306.533" fill="#000" font-size="14" textLength="45.138">Guid Id</text><g data-visibility-modifier="PUBLIC_FIELD"><ellipse cx="33" cy="319.914" rx="3" ry="3" fill="none" style="stroke:#038048;stroke-width:1;"/></g><text x="42" y="324.143" fill="#000" font-size="14" textLength="66.91">string SKU</text><g data-visibility-modifier="PUBLIC_FIELD"><ellipse cx="33" cy="337.523" rx="3" ry="3" fill="none" style="stroke:#038048;stroke-width:1;"/></g><text x="42" y="341.752" fill="#000" font-size="14" textLength="75.469">string Name</text><g data-visibility-modifier="PUBLIC_FIELD"><ellipse cx="33" cy="355.133" rx="3" ry="3" fill="none" style="stroke:#038048;stroke-width:1;"/></g><text x="42" y="359.361" fill="#000" font-size="14" textLength="108.151">string Description</text><g data-visibility-modifier="PUBLIC_FIELD"><ellipse cx="33" cy="372.742" rx="3" ry="3" fill="none" style="stroke:#038048;stroke-width:1;"/></g><text x="42" y="376.971" fill="#000" font-size="14" textLength="108.924">decimal UnitPrice</text><g data-visibility-modifier="PUBLIC_FIELD"><ellipse cx="33" cy="390.352" rx="3" ry="3" fill="none" style="stroke:#038048;stroke-width:1;"/></g><text x="42" y="394.58" fill="#000" font-size="14" textLength="102.724">int ReorderLevel</text><line x1="23" y1="401.656" x2="211.179" y2="401.656" style="stroke:#181818;stroke-width:0.5;"/><g data-visibility-modifier="PUBLIC_METHOD"><ellipse cx="33" cy="415.961" rx="3" ry="3" fill="#84BE84" style="stroke:#038048;stroke-width:1;"/></g><text x="42" y="420.189" fill="#000" font-size="14" textLength="164.179">void UpdatePrice(decimal)</text></g><!--class InventoryItem--><g class="entity" data-qualified-name="Domain.InventoryItem" id="ent0003" data-source-line="13"><rect x="31.5" y="505" width="170.73" height="136.047" fill="#F1F1F1" style="stroke:#181818;stroke-width:0.5;" rx="2.5" ry="2.5"/><ellipse cx="70.763" cy="521" rx="11" ry="11" fill="#ADD1B2" style="stroke:#181818;stroke-width:1;"/><path d="M73.528,516.875 Q73.685,516.656 73.872,516.547 Q74.06,516.438 74.278,516.438 Q74.653,516.438 74.888,516.703 Q75.122,516.953 75.122,517.563 L75.122,519.016 Q75.122,519.625 74.888,519.891 Q74.653,520.156 74.278,520.156 Q73.935,520.156 73.731,519.953 Q73.528,519.766 73.419,519.25 Q73.372,518.891 73.185,518.703 Q72.856,518.328 72.247,518.109 Q71.638,517.891 71.013,517.891 Q70.247,517.891 69.606,518.219 Q68.981,518.547 68.481,519.297 Q67.997,520.047 67.997,521.078 L67.997,522.172 Q67.997,523.406 68.888,524.234 Q69.778,525.047 71.372,525.047 Q72.31,525.047 72.966,524.797 Q73.356,524.641 73.778,524.203 Q74.044,523.938 74.185,523.859 Q74.341,523.781 74.544,523.781 Q74.872,523.781 75.122,524.047 Q75.388,524.297 75.388,524.641 Q75.388,524.984 75.044,525.391 Q74.544,525.969 73.747,526.297 Q72.669,526.75 71.372,526.75 Q69.856,526.75 68.653,526.125 Q67.669,525.625 66.981,524.563 Q66.294,523.484 66.294,522.203 L66.294,521.047 Q66.294,519.719 66.903,518.578 Q67.528,517.422 68.622,516.813 Q69.716,516.188 70.95,516.188 Q71.685,516.188 72.325,516.359 Q72.981,516.516 73.528,516.875 Z " fill="#000"/><text x="90.154" y="526.729" fill="#000" font-size="14" textLength="84.813">InventoryItem</text><line x1="32.5" y1="537" x2="201.23" y2="537" style="stroke:#181818;stroke-width:0.5;"/><g data-visibility-modifier="PUBLIC_FIELD"><ellipse cx="42.5" cy="551.305" rx="3" ry="3" fill="none" style="stroke:#038048;stroke-width:1;"/></g><text x="51.5" y="555.533" fill="#000" font-size="14" textLength="45.138">Guid Id</text><g data-visibility-modifier="PUBLIC_FIELD"><ellipse cx="42.5" cy="568.914" rx="3" ry="3" fill="none" style="stroke:#038048;stroke-width:1;"/></g><text x="51.5" y="573.143" fill="#000" font-size="14" textLength="100.386">Product Product</text><g data-visibility-modifier="PUBLIC_FIELD"><ellipse cx="42.5" cy="586.523" rx="3" ry="3" fill="none" style="stroke:#038048;stroke-width:1;"/></g><text x="51.5" y="590.752" fill="#000" font-size="14" textLength="122.958">int QuantityOnHand</text><g data-visibility-modifier="PUBLIC_FIELD"><ellipse cx="42.5" cy="604.133" rx="3" ry="3" fill="none" style="stroke:#038048;stroke-width:1;"/></g><text x="51.5" y="608.361" fill="#000" font-size="14" textLength="78.593">int Reserved</text><line x1="32.5" y1="615.438" x2="201.23" y2="615.438" style="stroke:#181818;stroke-width:0.5;"/><g data-visibility-modifier="PUBLIC_METHOD"><ellipse cx="42.5" cy="629.742" rx="3" ry="3" fill="#84BE84" style="stroke:#038048;stroke-width:1;"/></g><text x="51.5" y="633.971" fill="#000" font-size="14" textLength="144.73">void AdjustQuantity(int)</text></g><!--class StockAdjustment--><g class="entity" data-qualified-name="Domain.StockAdjustment" id="ent0004" data-source-line="21"><rect x="37" y="719" width="159.807" height="136.047" fill="#F1F1F1" style="stroke:#181818;stroke-width:0.5;" rx="2.5" ry="2.5"/><ellipse cx="62.241" cy="735" rx="11" ry="11" fill="#ADD1B2" style="stroke:#181818;stroke-width:1;"/><path d="M65.007,730.875 Q65.163,730.656 65.351,730.547 Q65.538,730.438 65.757,730.438 Q66.132,730.438 66.366,730.703 Q66.601,730.953 66.601,731.563 L66.601,733.016 Q66.601,733.625 66.366,733.891 Q66.132,734.156 65.757,734.156 Q65.413,734.156 65.21,733.953 Q65.007,733.766 64.898,733.25 Q64.851,732.891 64.663,732.703 Q64.335,732.328 63.726,732.109 Q63.116,731.891 62.491,731.891 Q61.726,731.891 61.085,732.219 Q60.46,732.547 59.96,733.297 Q59.476,734.047 59.476,735.078 L59.476,736.172 Q59.476,737.406 60.366,738.234 Q61.257,739.047 62.851,739.047 Q63.788,739.047 64.445,738.797 Q64.835,738.641 65.257,738.203 Q65.523,737.938 65.663,737.859 Q65.82,737.781 66.023,737.781 Q66.351,737.781 66.601,738.047 Q66.866,738.297 66.866,738.641 Q66.866,738.984 66.523,739.391 Q66.023,739.969 65.226,740.297 Q64.148,740.75 62.851,740.75 Q61.335,740.75 60.132,740.125 Q59.148,739.625 58.46,738.563 Q57.773,737.484 57.773,736.203 L57.773,735.047 Q57.773,733.719 58.382,732.578 Q59.007,731.422 60.101,730.813 Q61.195,730.188 62.429,730.188 Q63.163,730.188 63.804,730.359 Q64.46,730.516 65.007,730.875 Z " fill="#000"/><text x="78.517" y="740.729" fill="#000" font-size="14" textLength="105.048">StockAdjustment</text><line x1="38" y1="751" x2="195.807" y2="751" style="stroke:#181818;stroke-width:0.5;"/><g data-visibility-modifier="PUBLIC_FIELD"><ellipse cx="48" cy="765.305" rx="3" ry="3" fill="none" style="stroke:#038048;stroke-width:1;"/></g><text x="57" y="769.533" fill="#000" font-size="14" textLength="45.138">Guid Id</text><g data-visibility-modifier="PUBLIC_FIELD"><ellipse cx="48" cy="782.914" rx="3" ry="3" fill="none" style="stroke:#038048;stroke-width:1;"/></g><text x="57" y="787.143" fill="#000" font-size="14" textLength="115.931">InventoryItem Item</text><g data-visibility-modifier="PUBLIC_FIELD"><ellipse cx="48" cy="800.523" rx="3" ry="3" fill="none" style="stroke:#038048;stroke-width:1;"/></g><text x="57" y="804.752" fill="#000" font-size="14" textLength="119.854">int QuantityChange</text><g data-visibility-modifier="PUBLIC_FIELD"><ellipse cx="48" cy="818.133" rx="3" ry="3" fill="none" style="stroke:#038048;stroke-width:1;"/></g><text x="57" y="822.361" fill="#000" font-size="14" textLength="133.807">DateTime Timestamp</text><g data-visibility-modifier="PUBLIC_FIELD"><ellipse cx="48" cy="835.742" rx="3" ry="3" fill="none" style="stroke:#038048;stroke-width:1;"/></g><text x="57" y="839.971" fill="#000" font-size="14" textLength="86.379">string Reason</text><line x1="38" y1="847.047" x2="195.807" y2="847.047" style="stroke:#181818;stroke-width:0.5;"/></g><!--class Supplier--><g class="entity" data-qualified-name="Domain.Supplier" id="ent0005" data-source-line="29"><rect x="49" y="59.5" width="135.724" height="100.828" fill="#F1F1F1" style="stroke:#181818;stroke-width:0.5;" rx="2.5" ry="2.5"/><ellipse cx="87.561" cy="75.5" rx="11" ry="11" fill="#ADD1B2" style="stroke:#181818;stroke-width:1;"/><path d="M90.327,71.375 Q90.483,71.156 90.671,71.047 Q90.858,70.938 91.077,70.938 Q91.452,70.938 91.686,71.203 Q91.921,71.453 91.921,72.063 L91.921,73.516 Q91.921,74.125 91.686,74.391 Q91.452,74.656 91.077,74.656 Q90.733,74.656 90.53,74.453 Q90.327,74.266 90.218,73.75 Q90.171,73.391 89.983,73.203 Q89.655,72.828 89.046,72.609 Q88.436,72.391 87.811,72.391 Q87.046,72.391 86.405,72.719 Q85.78,73.047 85.28,73.797 Q84.796,74.547 84.796,75.578 L84.796,76.672 Q84.796,77.906 85.686,78.734 Q86.577,79.547 88.171,79.547 Q89.108,79.547 89.764,79.297 Q90.155,79.141 90.577,78.703 Q90.843,78.438 90.983,78.359 Q91.139,78.281 91.343,78.281 Q91.671,78.281 91.921,78.547 Q92.186,78.797 92.186,79.141 Q92.186,79.484 91.843,79.891 Q91.343,80.469 90.546,80.797 Q89.468,81.25 88.171,81.25 Q86.655,81.25 85.452,80.625 Q84.468,80.125 83.78,79.063 Q83.093,77.984 83.093,76.703 L83.093,75.547 Q83.093,74.219 83.702,73.078 Q84.327,71.922 85.421,71.313 Q86.514,70.688 87.749,70.688 Q88.483,70.688 89.124,70.859 Q89.78,71.016 90.327,71.375 Z " fill="#000"/><text x="106.797" y="81.229" fill="#000" font-size="14" textLength="51.365">Supplier</text><line x1="50" y1="91.5" x2="183.724" y2="91.5" style="stroke:#181818;stroke-width:0.5;"/><g data-visibility-modifier="PUBLIC_FIELD"><ellipse cx="60" cy="105.805" rx="3" ry="3" fill="none" style="stroke:#038048;stroke-width:1;"/></g><text x="69" y="110.033" fill="#000" font-size="14" textLength="45.138">Guid Id</text><g data-visibility-modifier="PUBLIC_FIELD"><ellipse cx="60" cy="123.414" rx="3" ry="3" fill="none" style="stroke:#038048;stroke-width:1;"/></g><text x="69" y="127.643" fill="#000" font-size="14" textLength="75.469">string Name</text><g data-visibility-modifier="PUBLIC_FIELD"><ellipse cx="60" cy="141.023" rx="3" ry="3" fill="none" style="stroke:#038048;stroke-width:1;"/></g><text x="69" y="145.252" fill="#000" font-size="14" textLength="109.724">string ContactInfo</text><line x1="50" y1="152.328" x2="183.724" y2="152.328" style="stroke:#181818;stroke-width:0.5;"/></g><!--class IProductRepository--><g class="entity" data-qualified-name="Services.IProductRepository" id="ent0007" data-source-line="37"><rect x="268.5" y="273.5" width="221.316" height="136.047" fill="#F1F1F1" style="stroke:#181818;stroke-width:0.5;" rx="2.5" ry="2.5"/><ellipse cx="315.381" cy="289.5" rx="11" ry="11" fill="#B4A7E5" style="stroke:#181818;stroke-width:1;"/><path d="M316.334,286.141 L316.334,292.797 L318.053,292.797 Q318.662,292.797 318.928,293.031 Q319.193,293.266 319.193,293.656 Q319.193,294.031 318.928,294.266 Q318.662,294.5 318.053,294.5 L312.912,294.5 Q312.303,294.5 312.037,294.266 Q311.771,294.031 311.771,293.641 Q311.771,293.266 312.037,293.031 Q312.303,292.797 312.912,292.797 L314.631,292.797 L314.631,286.141 L312.912,286.141 Q312.303,286.141 312.037,285.906 Q311.771,285.672 311.771,285.281 Q311.771,284.906 312.037,284.672 Q312.303,284.438 312.912,284.438 L318.053,284.438 Q318.662,284.438 318.928,284.672 Q319.193,284.906 319.193,285.281 Q319.193,285.672 318.928,285.906 Q318.662,286.141 318.053,286.141 L316.334,286.141 Z " fill="#000"/><text x="335.881" y="295.229" fill="#000" font-size="14" textLength="119.055" font-style="italic">IProductRepository</text><line x1="269.5" y1="305.5" x2="488.816" y2="305.5" style="stroke:#181818;stroke-width:0.5;"/><line x1="269.5" y1="313.5" x2="488.816" y2="313.5" style="stroke:#181818;stroke-width:0.5;"/><g data-visibility-modifier="PUBLIC_METHOD"><ellipse cx="279.5" cy="327.805" rx="3" ry="3" fill="#84BE84" style="stroke:#038048;stroke-width:1;"/></g><text x="288.5" y="332.033" fill="#000" font-size="14" textLength="128.386">Product Get(Guid id)</text><g data-visibility-modifier="PUBLIC_METHOD"><ellipse cx="279.5" cy="345.414" rx="3" ry="3" fill="#84BE84" style="stroke:#038048;stroke-width:1;"/></g><text x="288.5" y="349.643" fill="#000" font-size="14" textLength="195.316">IEnumerable&lt;Product> GetAll()</text><g data-visibility-modifier="PUBLIC_METHOD"><ellipse cx="279.5" cy="363.023" rx="3" ry="3" fill="#84BE84" style="stroke:#038048;stroke-width:1;"/></g><text x="288.5" y="367.252" fill="#000" font-size="14" textLength="112.055">void Add(Product)</text><g data-visibility-modifier="PUBLIC_METHOD"><ellipse cx="279.5" cy="380.633" rx="3" ry="3" fill="#84BE84" style="stroke:#038048;stroke-width:1;"/></g><text x="288.5" y="384.861" fill="#000" font-size="14" textLength="132.289">void Update(Product)</text><g data-visibility-modifier="PUBLIC_METHOD"><ellipse cx="279.5" cy="398.242" rx="3" ry="3" fill="#84BE84" style="stroke:#038048;stroke-width:1;"/></g><text x="288.5" y="402.471" fill="#000" font-size="14" textLength="108.938">void Delete(Guid)</text></g><!--class IInventoryRepository--><g class="entity" data-qualified-name="Services.IInventoryRepository" id="ent0008" data-source-line="45"><rect x="524.5" y="291" width="303.013" height="100.828" fill="#F1F1F1" style="stroke:#181818;stroke-width:0.5;" rx="2.5" ry="2.5"/><ellipse cx="607.56" cy="307" rx="11" ry="11" fill="#B4A7E5" style="stroke:#181818;stroke-width:1;"/><path d="M608.513,303.641 L608.513,310.297 L610.232,310.297 Q610.841,310.297 611.107,310.531 Q611.373,310.766 611.373,311.156 Q611.373,311.531 611.107,311.766 Q610.841,312 610.232,312 L605.091,312 Q604.482,312 604.216,311.766 Q603.951,311.531 603.951,311.141 Q603.951,310.766 604.216,310.531 Q604.482,310.297 605.091,310.297 L606.81,310.297 L606.81,303.641 L605.091,303.641 Q604.482,303.641 604.216,303.406 Q603.951,303.172 603.951,302.781 Q603.951,302.406 604.216,302.172 Q604.482,301.938 605.091,301.938 L610.232,301.938 Q610.841,301.938 611.107,302.172 Q611.373,302.406 611.373,302.781 Q611.373,303.172 611.107,303.406 Q610.841,303.641 610.232,303.641 L608.513,303.641 Z " fill="#000"/><text x="628.06" y="312.729" fill="#000" font-size="14" textLength="128.393" font-style="italic">IInventoryRepository</text><line x1="525.5" y1="323" x2="826.513" y2="323" style="stroke:#181818;stroke-width:0.5;"/><line x1="525.5" y1="331" x2="826.513" y2="331" style="stroke:#181818;stroke-width:0.5;"/><g data-visibility-modifier="PUBLIC_METHOD"><ellipse cx="535.5" cy="345.305" rx="3" ry="3" fill="#84BE84" style="stroke:#038048;stroke-width:1;"/></g><text x="544.5" y="349.533" fill="#000" font-size="14" textLength="277.013">InventoryItem GetByProduct(Guid productId)</text><g data-visibility-modifier="PUBLIC_METHOD"><ellipse cx="535.5" cy="362.914" rx="3" ry="3" fill="#84BE84" style="stroke:#038048;stroke-width:1;"/></g><text x="544.5" y="367.143" fill="#000" font-size="14" textLength="155.62">void Save(InventoryItem)</text><g data-visibility-modifier="PUBLIC_METHOD"><ellipse cx="535.5" cy="380.523" rx="3" ry="3" fill="#84BE84" style="stroke:#038048;stroke-width:1;"/></g><text x="544.5" y="384.752" fill="#000" font-size="14" textLength="259.109">void RecordAdjustment(StockAdjustment)</text></g><!--class InventoryManager--><g class="entity" data-qualified-name="Services.InventoryManager" id="ent0009" data-source-line="51"><rect x="344" y="42" width="408.074" height="136.047" fill="#F1F1F1" style="stroke:#181818;stroke-width:0.5;" rx="2.5" ry="2.5"/><ellipse cx="487.367" cy="58" rx="11" ry="11" fill="#ADD1B2" style="stroke:#181818;stroke-width:1;"/><path d="M490.132,53.875 Q490.289,53.656 490.476,53.547 Q490.664,53.438 490.882,53.438 Q491.257,53.438 491.492,53.703 Q491.726,53.953 491.726,54.563 L491.726,56.016 Q491.726,56.625 491.492,56.891 Q491.257,57.156 490.882,57.156 Q490.539,57.156 490.335,56.953 Q490.132,56.766 490.023,56.25 Q489.976,55.891 489.789,55.703 Q489.46,55.328 488.851,55.109 Q488.242,54.891 487.617,54.891 Q486.851,54.891 486.21,55.219 Q485.585,55.547 485.085,56.297 Q484.601,57.047 484.601,58.078 L484.601,59.172 Q484.601,60.406 485.492,61.234 Q486.382,62.047 487.976,62.047 Q488.914,62.047 489.57,61.797 Q489.96,61.641 490.382,61.203 Q490.648,60.938 490.789,60.859 Q490.945,60.781 491.148,60.781 Q491.476,60.781 491.726,61.047 Q491.992,61.297 491.992,61.641 Q491.992,61.984 491.648,62.391 Q491.148,62.969 490.351,63.297 Q489.273,63.75 487.976,63.75 Q486.46,63.75 485.257,63.125 Q484.273,62.625 483.585,61.563 Q482.898,60.484 482.898,59.203 L482.898,58.047 Q482.898,56.719 483.507,55.578 Q484.132,54.422 485.226,53.813 Q486.32,53.188 487.554,53.188 Q488.289,53.188 488.929,53.359 Q489.585,53.516 490.132,53.875 Z " fill="#000"/><text x="507.867" y="63.729" fill="#000" font-size="14" textLength="112.841">InventoryManager</text><line x1="345" y1="74" x2="751.074" y2="74" style="stroke:#181818;stroke-width:0.5;"/><g data-visibility-modifier="PRIVATE_FIELD"><rect x="352" y="85.305" width="6" height="6" fill="none" style="stroke:#C82930;stroke-width:1;"/></g><text x="364" y="92.533" fill="#000" font-size="14" textLength="184.427">IProductRepository _products</text><g data-visibility-modifier="PRIVATE_FIELD"><rect x="352" y="102.914" width="6" height="6" fill="none" style="stroke:#C82930;stroke-width:1;"/></g><text x="364" y="110.143" fill="#000" font-size="14" textLength="207.771">IInventoryRepository _inventories</text><line x1="345" y1="117.219" x2="751.074" y2="117.219" style="stroke:#181818;stroke-width:0.5;"/><g data-visibility-modifier="PUBLIC_METHOD"><ellipse cx="355" cy="131.523" rx="3" ry="3" fill="#84BE84" style="stroke:#038048;stroke-width:1;"/></g><text x="364" y="135.752" fill="#000" font-size="14" textLength="177.413">void CreateProduct(Product)</text><g data-visibility-modifier="PUBLIC_METHOD"><ellipse cx="355" cy="149.133" rx="3" ry="3" fill="#84BE84" style="stroke:#038048;stroke-width:1;"/></g><text x="364" y="153.361" fill="#000" font-size="14" textLength="354.854">void AddStock(Guid productId, int quantity, string reason)</text><g data-visibility-modifier="PUBLIC_METHOD"><ellipse cx="355" cy="166.742" rx="3" ry="3" fill="#84BE84" style="stroke:#038048;stroke-width:1;"/></g><text x="364" y="170.971" fill="#000" font-size="14" textLength="382.074">void RemoveStock(Guid productId, int quantity, string reason)</text></g><!--link Product to InventoryItem--><g class="link" data-entity-1="ent0002" data-entity-2="ent0003" id="lnk10" data-source-line="60" data-link-type="association"><path d="M117,427.31 C117,452.84 117,480.51 117,504.74" style="stroke:#181818;stroke-width:1;" fill="none" id="Product-InventoryItem" codeLine="60"/><polygon points="122,471.176,124.939,462.131,119.061,462.131,122,471.176" fill="#000" style="stroke:#000;stroke-width:1;stroke-linejoin:miter;stroke-miterlimit:10;"/><text x="131" y="471.495" fill="#000" font-size="13" textLength="20.96">has</text><text x="109.701" y="448.871" fill="#000" font-size="13">1</text><text x="97.004" y="493.911" fill="#000" font-size="13" textLength="19.513">0..*</text></g><!--link InventoryItem to StockAdjustment--><g class="link" data-entity-1="ent0003" data-entity-2="ent0004" id="lnk11" data-source-line="61" data-link-type="association"><path d="M117,641.08 C117,665.95 117,694.13 117,718.99" style="stroke:#181818;stroke-width:1;" fill="none" id="InventoryItem-StockAdjustment" codeLine="61"/><polygon points="122,685.176,124.939,676.131,119.061,676.131,122,685.176" fill="#000" style="stroke:#000;stroke-width:1;stroke-linejoin:miter;stroke-miterlimit:10;"/><text x="131" y="685.495" fill="#000" font-size="13" textLength="43.348">records</text><text x="109.665" y="662.437" fill="#000" font-size="13">1</text><text x="97" y="708.188" fill="#000" font-size="13" textLength="19.513">0..*</text></g><!--link Supplier to Product--><g class="link" data-entity-1="ent0005" data-entity-2="ent0002" id="lnk12" data-source-line="62" data-link-type="association"><path d="M117,160.52 C117,188.32 117,223.77 117,255.85" style="stroke:#181818;stroke-width:1;" fill="none" id="Supplier-Product" codeLine="62"/><polygon points="122,222.176,124.939,213.131,119.061,213.131,122,222.176" fill="#000" style="stroke:#000;stroke-width:1;stroke-linejoin:miter;stroke-miterlimit:10;"/><text x="131" y="222.495" fill="#000" font-size="13" textLength="47.696">supplies</text><text x="109.564" y="181.914" fill="#000" font-size="13">1</text><text x="97.169" y="245.008" fill="#000" font-size="13" textLength="19.513">0..*</text></g><!--link InventoryManager to IProductRepository--><g class="link" data-entity-1="ent0009" data-entity-2="ent0007" id="lnk13" data-source-line="64" data-link-type="dependency"><path d="M498.44,178.31 C476.42,208.2 453.535,239.274 431.525,269.164" style="stroke:#181818;stroke-width:1;stroke-dasharray:7,7;" fill="none" id="InventoryManager-to-IProductRepository" codeLine="64"/><polygon points="428.56,273.19,437.118,268.315,431.525,269.164,430.676,263.571,428.56,273.19" fill="#181818" style="stroke:#181818;stroke-width:1;stroke-linejoin:miter;stroke-miterlimit:10;"/><polygon points="475.035,221.202,482.765,215.662,478.032,212.176,475.035,221.202" fill="#000" style="stroke:#000;stroke-width:1;stroke-linejoin:miter;stroke-miterlimit:10;"/><text x="487" y="222.495" fill="#000" font-size="13" textLength="27.46">uses</text></g><!--link InventoryManager to IInventoryRepository--><g class="link" data-entity-1="ent0009" data-entity-2="ent0008" id="lnk14" data-source-line="65" data-link-type="dependency"><path d="M585.54,178.31 C605.6,214.28 627.444,253.443 645.794,286.343" style="stroke:#181818;stroke-width:1;stroke-dasharray:7,7;" fill="none" id="InventoryManager-to-IInventoryRepository" codeLine="65"/><polygon points="648.23,290.71,647.339,280.901,645.794,286.343,640.353,284.798,648.23,290.71" fill="#181818" style="stroke:#181818;stroke-width:1;stroke-linejoin:miter;stroke-miterlimit:10;"/><polygon points="619.435,221.543,617.596,212.211,612.463,215.075,619.435,221.543" fill="#000" style="stroke:#000;stroke-width:1;stroke-linejoin:miter;stroke-miterlimit:10;"/><text x="626" y="222.495" fill="#000" font-size="13" textLength="27.46">uses</text></g><?plantuml-src dLDDZvim43sNNp7YKj9kelOQLP6seTgYVcr3SrwvU3RhBjZKDaZHgl-zOp0Gi_JI2uc7DxmtRvvVGYPRb5RfCtnXafsmeXFaPsEnWZNiIsOCf8ATDAkYcXMF184uLHKJCeQd2A3e8BTQyQQmL7dn-gOH739E_upLGfuW_tIS3bzPXTCfHLDeKLkX91Kv5g9Y9HobiBTQ50ueICy1bUQeFsEB9PLQHGJ7cZEB7IhnVIkIyoSQDOsZPMwOKDcWr_zwdkyDarROypVvaKa-aXlKBVA1-9h_QemTe0b1PhovLSLZZ-hS39b3LUun8zy_C7boawSqtmzH8RY7iQog9zyEo0nP5l8sTLqArCjB27tVAsbPOJDvhxgFq6V6xUOqBhbg-lsIDDJth438l5a7h9KHNMQUBgoyGPjqh8Alt9mVP5EXPZzBVESXEuUvBijaDNd94_zo5IxsMJd54gdi64Q_BxIDjixKXNOJ__kp_t8ljkuF6H-9SjPY4hIDhmvOK12drIQpLVyhWFtLwXQpNd3npeimxlNI87V25mMQGSjUOvV_VfQvMsHifsqsv9Mp37xxf5s1JuFkqdGnPgLQ_8z-dwGX4V7R6DPhYDziDg_YsNNSmWCpi8l2QjWnlqXR8d8BS7rZsCEMWNeBfWSuRFHi4PlDRYdEMsWC1gg2XgNLZ2r_0G00?></g></svg>