<svg xmlns="http://www.w3.org/2000/svg" xmlns:xlink="http://www.w3.org/1999/xlink" version="1.1" data-diagram-type="DESCRIPTION" style="width:598px;height:584px;background:#FFFFFF;" width="598px" height="584px" viewBox="0 0 598 584" zoomAndPan="magnify" preserveAspectRatio="none" contentStyleType="text/css"><?plantuml 1.2026.8?><defs/><g font-family="sans-serif" lengthAdjust="spacing"><g class="title" data-source-line="1"><text x="117.851" y="24.533" fill="#000" font-size="14" textLength="356.289" font-weight="700">Inventory Management System - Component Diagram</text></g><!--cluster Application--><g class="cluster" data-qualified-name="Application" id="ent0001" data-source-line="2"><path d="M205,44.609 L282.221,44.609 A3.75,3.75 0 0 1 284.721,47.109 L291.721,68.219 L292,68.219 A2.5,2.5 0 0 1 294.5,70.719 L294.5,142.109 A2.5,2.5 0 0 1 292,144.609 L205,144.609 A2.5,2.5 0 0 1 202.5,142.109 L202.5,47.109 A2.5,2.5 0 0 1 205,44.609" style="stroke:#000;stroke-width:1.5;" fill="none"/><line x1="202.5" y1="68.219" x2="291.721" y2="68.219" style="stroke:#000;stroke-width:1.5;"/><text x="206.5" y="61.143" fill="#000" font-size="14" textLength="76.221" font-weight="700">Application</text></g><!--cluster Services--><g class="cluster" data-qualified-name="Services" id="ent0003" data-source-line="6"><path d="M157,194.609 L215.606,194.609 A3.75,3.75 0 0 1 218.106,197.109 L225.106,218.219 L338,218.219 A2.5,2.5 0 0 1 340.5,220.719 L340.5,292.109 A2.5,2.5 0 0 1 338,294.609 L157,294.609 A2.5,2.5 0 0 1 154.5,292.109 L154.5,197.109 A2.5,2.5 0 0 1 157,194.609" style="stroke:#000;stroke-width:1.5;" fill="none"/><line x1="154.5" y1="218.219" x2="225.106" y2="218.219" style="stroke:#000;stroke-width:1.5;"/><text x="158.5" y="211.143" fill="#000" font-size="14" textLength="57.606" font-weight="700">Services</text></g><!--cluster Data--><g class="cluster" data-qualified-name="Data" id="ent0005" data-source-line="10"><path d="M49,344.609 L80.345,344.609 A3.75,3.75 0 0 1 82.845,347.109 L89.845,368.219 L432,368.219 A2.5,2.5 0 0 1 434.5,370.719 L434.5,567.109 A2.5,2.5 0 0 1 432,569.609 L49,569.609 A2.5,2.5 0 0 1 46.5,567.109 L46.5,347.109 A2.5,2.5 0 0 1 49,344.609" style="stroke:#000;stroke-width:1.5;" fill="none"/><line x1="46.5" y1="368.219" x2="89.845" y2="368.219" style="stroke:#000;stroke-width:1.5;"/><text x="50.5" y="361.143" fill="#000" font-size="14" textLength="30.345" font-weight="700">Data</text></g><!--entity UI--><g class="entity" data-qualified-name="Application.UI" id="ent0002" data-source-line="3"><rect x="220.5" y="80.609" width="54" height="47.609" fill="#F1F1F1" style="stroke:#181818;stroke-width:0.5;" rx="2.5" ry="2.5"/><rect x="254.5" y="85.609" width="15" height="10" fill="#F1F1F1" style="stroke:#181818;stroke-width:0.5;"/><rect x="252.5" y="87.609" width="4" height="2" fill="#F1F1F1" style="stroke:#181818;stroke-width:0.5;"/><rect x="252.5" y="91.609" width="4" height="2" fill="#F1F1F1" style="stroke:#181818;stroke-width:0.5;"/><text x="235.5" y="115.143" fill="#000" font-size="14" textLength="14">UI</text></g><!--entity Manager--><g class="entity" data-qualified-name="Services.Manager" id="ent0004" data-source-line="7"><rect x="171" y="230.609" width="152.841" height="47.609" fill="#F1F1F1" style="stroke:#181818;stroke-width:0.5;" rx="2.5" ry="2.5"/><rect x="303.841" y="235.609" width="15" height="10" fill="#F1F1F1" style="stroke:#181818;stroke-width:0.5;"/><rect x="301.841" y="237.609" width="4" height="2" fill="#F1F1F1" style="stroke:#181818;stroke-width:0.5;"/><rect x="301.841" y="241.609" width="4" height="2" fill="#F1F1F1" style="stroke:#181818;stroke-width:0.5;"/><text x="186" y="265.143" fill="#000" font-size="14" textLength="112.841">InventoryManager</text></g><!--entity ProdRepo--><g class="entity" data-qualified-name="Data.ProdRepo" id="ent0006" data-source-line="11"><rect x="63" y="380.609" width="155.165" height="47.609" fill="#F1F1F1" style="stroke:#181818;stroke-width:0.5;" rx="2.5" ry="2.5"/><rect x="198.165" y="385.609" width="15" height="10" fill="#F1F1F1" style="stroke:#181818;stroke-width:0.5;"/><rect x="196.165" y="387.609" width="4" height="2" fill="#F1F1F1" style="stroke:#181818;stroke-width:0.5;"/><rect x="196.165" y="391.609" width="4" height="2" fill="#F1F1F1" style="stroke:#181818;stroke-width:0.5;"/><text x="78" y="415.143" fill="#000" font-size="14" textLength="115.165">ProductRepository</text></g><!--entity InvRepo--><g class="entity" data-qualified-name="Data.InvRepo" id="ent0007" data-source-line="12"><rect x="253" y="380.609" width="164.503" height="47.609" fill="#F1F1F1" style="stroke:#181818;stroke-width:0.5;" rx="2.5" ry="2.5"/><rect x="397.503" y="385.609" width="15" height="10" fill="#F1F1F1" style="stroke:#181818;stroke-width:0.5;"/><rect x="395.503" y="387.609" width="4" height="2" fill="#F1F1F1" style="stroke:#181818;stroke-width:0.5;"/><rect x="395.503" y="391.609" width="4" height="2" fill="#F1F1F1" style="stroke:#181818;stroke-width:0.5;"/><text x="268" y="415.143" fill="#000" font-size="14" textLength="124.503">InventoryRepository</text></g><!--entity DB--><g class="entity" data-qualified-name="Data.DB" id="ent0008" data-source-line="13"><path d="M295.5,516.609 C295.5,506.609 335.465,506.609 335.465,506.609 C335.465,506.609 375.431,506.609 375.431,516.609 L375.431,543.219 C375.431,553.219 335.465,553.219 335.465,553.219 C335.465,553.219 295.5,553.219 295.5,543.219 L295.5,516.609" style="stroke:#181818;stroke-width:0.5;" fill="#F1F1F1"/><path d="M295.5,516.609 C295.5,526.609 335.465,526.609 335.465,526.609 C335.465,526.609 375.431,526.609 375.431,516.609" style="stroke:#181818;stroke-width:0.5;" fill="none"/><text x="305.5" y="545.143" fill="#000" font-size="14" textLength="59.931">Database</text></g><g class="entity" data-qualified-name="GMN14" id="ent0015" data-source-line="23"><path d="M6,83.109 L6,125.813 A0,0 0 0 0 6,125.813 L184.523,125.813 A0,0 0 0 0 184.523,125.813 L184.523,108.609 L220.22,104.609 L184.523,100.609 L184.523,93.109 L174.523,83.109 L6,83.109 A0,0 0 0 0 6,83.109" style="stroke:#181818;stroke-width:0.5;" fill="#FEFFDD"/><path d="M174.523,83.109 L174.523,93.109 L184.523,93.109 L174.523,83.109" style="stroke:#181818;stroke-width:0.5;" fill="#FEFFDD"/><text x="12" y="101.604" fill="#000" font-size="13" textLength="157.523">Could be Console, Web UI,</text><text x="12" y="117.956" fill="#000" font-size="13" textLength="93.203">or API controller</text></g><g class="entity" data-qualified-name="GMN17" id="ent0018" data-source-line="28"><path d="M451,517.109 L451,526.109 L375.67,530.109 L451,534.109 L451,543.461 A0,0 0 0 0 451,543.461 L583.992,543.461 A0,0 0 0 0 583.992,543.461 L583.992,527.109 L573.992,517.109 L451,517.109 A0,0 0 0 0 451,517.109" style="stroke:#181818;stroke-width:0.5;" fill="#FEFFDD"/><path d="M573.992,517.109 L573.992,527.109 L583.992,527.109 L573.992,517.109" style="stroke:#181818;stroke-width:0.5;" fill="#FEFFDD"/><text x="457" y="535.604" fill="#000" font-size="13" textLength="111.992">SQL / NoSQL store</text></g><!--link UI to Manager--><g class="link" data-entity-1="ent0002" data-entity-2="ent0004" id="lnk9" data-source-line="16" data-link-type="dependency"><path d="M247.5,128.729 C247.5,156.379 247.5,197.369 247.5,225.159" style="stroke:#181818;stroke-width:1;" fill="none" id="UI-to-Manager"/><polygon points="247.5,230.159,251.5,221.159,247.5,225.159,243.5,221.159,247.5,230.159" fill="#181818" style="stroke:#181818;stroke-width:1;stroke-linejoin:miter;stroke-miterlimit:10;"/><text x="248.5" y="175.104" fill="#000" font-size="13" textLength="26.006">calls</text></g><!--link Manager to ProdRepo--><g class="link" data-entity-1="ent0004" data-entity-2="ent0006" id="lnk10" data-source-line="17" data-link-type="dependency"><path d="M226.43,278.859 C218.05,288.449 208.53,299.829 200.5,310.609 C183.4,333.569 168.477,357.037 156.817,376.217" style="stroke:#181818;stroke-width:1;" fill="none" id="Manager-to-ProdRepo"/><polygon points="154.22,380.489,162.313,374.877,156.817,376.217,155.477,370.721,154.22,380.489" fill="#181818" style="stroke:#181818;stroke-width:1;stroke-linejoin:miter;stroke-miterlimit:10;"/><text x="201.5" y="325.104" fill="#000" font-size="13" textLength="70.078">reads/writes</text></g><!--link Manager to InvRepo--><g class="link" data-entity-1="ent0004" data-entity-2="ent0007" id="lnk11" data-source-line="18" data-link-type="dependency"><path d="M261.25,278.729 C277.69,306.379 302.485,348.071 319.005,375.861" style="stroke:#181818;stroke-width:1;" fill="none" id="Manager-to-InvRepo"/><polygon points="321.56,380.159,320.399,370.379,319.005,375.861,313.523,374.467,321.56,380.159" fill="#181818" style="stroke:#181818;stroke-width:1;stroke-linejoin:miter;stroke-miterlimit:10;"/><text x="289.5" y="325.104" fill="#000" font-size="13" textLength="70.078">reads/writes</text></g><!--link ProdRepo to DB--><g class="link" data-entity-1="ent0006" data-entity-2="ent0008" id="lnk12" data-source-line="19" data-link-type="dependency"><path d="M177.18,428.839 C212.37,451.129 260.946,481.894 295.746,503.934" style="stroke:#181818;stroke-width:1;" fill="none" id="ProdRepo-to-DB"/><polygon points="299.97,506.609,294.507,498.415,295.746,503.934,290.226,505.173,299.97,506.609" fill="#181818" style="stroke:#181818;stroke-width:1;stroke-linejoin:miter;stroke-miterlimit:10;"/><text x="250.5" y="473.104" fill="#000" font-size="13" textLength="37.553">CRUD</text></g><!--link InvRepo to DB--><g class="link" data-entity-1="ent0007" data-entity-2="ent0008" id="lnk13" data-source-line="20" data-link-type="dependency"><path d="M335.5,428.839 C335.5,451.059 335.5,479.359 335.5,501.399" style="stroke:#181818;stroke-width:1;" fill="none" id="InvRepo-to-DB"/><polygon points="335.5,506.399,339.5,497.399,335.5,501.399,331.5,497.399,335.5,506.399" fill="#181818" style="stroke:#181818;stroke-width:1;stroke-linejoin:miter;stroke-miterlimit:10;"/><text x="336.5" y="473.104" fill="#000" font-size="13" textLength="37.553">CRUD</text></g><?plantuml-src NP0nJyCm48Lt_ugdp8swPq1gcoKIeD8eOa0CJd8j5eulijsY2l7ViOD3bKu-l_lUE_kyyffGcGiPp_QA9sdaYOPmGtrrdWRasF4miebIgUJ9oa6CiliC6BBDE6hLIQ_OPFWMm5jJlKCwD9Nu4JUk9djH7Ra4_S_x6sSdIweNlb9wcJnxo_svymSQsQdedKnHZT8YzOu9UaBw4DTAbu9ZbKMWtCQXJOKyVvYVKQ2JMZkHhbDh7bR0akpT-iigJqiapReZPkE4bDi2kqDJYiGkHM7O4pGTFVWOruYm_xFkqL8eZ6DDAxnI6rghq6EBpRv2nyPRrZgiZqoFc96Ih3fzJ57Xaq3zyeWrdZcUBYo8RlWl?></g></svg>